<mxfile host="Electron" agent="Mozilla/5.0 (Macintosh; Intel Mac OS X 10_15_7) AppleWebKit/537.36 (KHTML, like Gecko) draw.io/24.7.8 Chrome/128.0.6613.36 Electron/32.0.1 Safari/537.36" version="24.7.8" pages="6">
  <diagram name="Исходная" id="-H_mtQnk-PTXWXPvYvuk">
    <mxGraphModel dx="1026" dy="658" grid="1" gridSize="10" guides="1" tooltips="1" connect="1" arrows="1" fold="1" page="1" pageScale="1" pageWidth="1169" pageHeight="827" math="0" shadow="0">
      <root>
        <mxCell id="0" />
        <mxCell id="1" parent="0" />
        <mxCell id="zA23MoTUsTF4_91t8viU-2" value="MongoDB" style="shape=cylinder3;whiteSpace=wrap;html=1;boundedLbl=1;backgroundOutline=1;size=15;" parent="1" vertex="1">
          <mxGeometry x="550" y="130" width="60" height="80" as="geometry" />
        </mxCell>
        <mxCell id="zA23MoTUsTF4_91t8viU-3" value="pymongo-api" style="rounded=1;whiteSpace=wrap;html=1;" parent="1" vertex="1">
          <mxGeometry x="350" y="140" width="120" height="60" as="geometry" />
        </mxCell>
        <mxCell id="zA23MoTUsTF4_91t8viU-4" style="edgeStyle=orthogonalEdgeStyle;rounded=0;orthogonalLoop=1;jettySize=auto;html=1;exitX=1;exitY=0.5;exitDx=0;exitDy=0;entryX=0;entryY=0.5;entryDx=0;entryDy=0;entryPerimeter=0;" parent="1" source="zA23MoTUsTF4_91t8viU-3" target="zA23MoTUsTF4_91t8viU-2" edge="1">
          <mxGeometry relative="1" as="geometry" />
        </mxCell>
      </root>
    </mxGraphModel>
  </diagram>
  <diagram id="SN5P2bmJiaCQsihAjMY9" name="Первый вариант">
    <mxGraphModel dx="977" dy="628" grid="1" gridSize="10" guides="1" tooltips="1" connect="1" arrows="1" fold="1" page="1" pageScale="1" pageWidth="827" pageHeight="1169" math="0" shadow="0">
      <root>
        <mxCell id="0" />
        <mxCell id="1" parent="0" />
        <mxCell id="JHWvI5u3J8DezEOWcF4O-2" value="pymongo-api" style="rounded=1;whiteSpace=wrap;html=1;" vertex="1" parent="1">
          <mxGeometry x="230" y="40" width="120" height="60" as="geometry" />
        </mxCell>
        <mxCell id="YGt6WVVv_OeVz8It4PFo-3" style="edgeStyle=orthogonalEdgeStyle;rounded=0;orthogonalLoop=1;jettySize=auto;html=1;exitX=1;exitY=0.5;exitDx=0;exitDy=0;entryX=0;entryY=0.5;entryDx=0;entryDy=0;" edge="1" parent="1" source="JHWvI5u3J8DezEOWcF4O-4" target="YGt6WVVv_OeVz8It4PFo-1">
          <mxGeometry relative="1" as="geometry" />
        </mxCell>
        <mxCell id="JHWvI5u3J8DezEOWcF4O-4" value="Router" style="rounded=1;whiteSpace=wrap;html=1;" vertex="1" parent="1">
          <mxGeometry x="235" y="240" width="110" height="50" as="geometry" />
        </mxCell>
        <mxCell id="JHWvI5u3J8DezEOWcF4O-21" value="" style="group" vertex="1" connectable="0" parent="1">
          <mxGeometry x="320" y="350" width="140" height="140" as="geometry" />
        </mxCell>
        <mxCell id="JHWvI5u3J8DezEOWcF4O-22" value="MongoDB" style="shape=cylinder3;whiteSpace=wrap;html=1;boundedLbl=1;backgroundOutline=1;size=15;" vertex="1" parent="JHWvI5u3J8DezEOWcF4O-21">
          <mxGeometry width="140" height="140" as="geometry" />
        </mxCell>
        <mxCell id="JHWvI5u3J8DezEOWcF4O-25" value="Shard&amp;nbsp;2" style="text;html=1;align=center;verticalAlign=middle;whiteSpace=wrap;rounded=0;" vertex="1" parent="JHWvI5u3J8DezEOWcF4O-21">
          <mxGeometry x="40" width="60" height="30" as="geometry" />
        </mxCell>
        <mxCell id="JHWvI5u3J8DezEOWcF4O-29" value="Driver" style="rounded=1;whiteSpace=wrap;html=1;" vertex="1" parent="1">
          <mxGeometry x="235" y="150" width="110" height="50" as="geometry" />
        </mxCell>
        <mxCell id="JHWvI5u3J8DezEOWcF4O-35" value="" style="endArrow=classic;html=1;rounded=0;exitX=0.5;exitY=1;exitDx=0;exitDy=0;entryX=0.5;entryY=0;entryDx=0;entryDy=0;" edge="1" parent="1" source="JHWvI5u3J8DezEOWcF4O-29" target="JHWvI5u3J8DezEOWcF4O-4">
          <mxGeometry width="50" height="50" relative="1" as="geometry">
            <mxPoint x="390" y="370" as="sourcePoint" />
            <mxPoint x="440" y="320" as="targetPoint" />
          </mxGeometry>
        </mxCell>
        <mxCell id="JHWvI5u3J8DezEOWcF4O-37" value="" style="endArrow=classic;html=1;rounded=0;exitX=0.5;exitY=1;exitDx=0;exitDy=0;" edge="1" parent="1" source="JHWvI5u3J8DezEOWcF4O-2" target="JHWvI5u3J8DezEOWcF4O-29">
          <mxGeometry width="50" height="50" relative="1" as="geometry">
            <mxPoint x="290" y="120" as="sourcePoint" />
            <mxPoint x="440" y="320" as="targetPoint" />
          </mxGeometry>
        </mxCell>
        <mxCell id="JHWvI5u3J8DezEOWcF4O-39" value="" style="endArrow=classic;html=1;rounded=0;entryX=0.5;entryY=0;entryDx=0;entryDy=0;exitX=0.5;exitY=1;exitDx=0;exitDy=0;" edge="1" parent="1" source="JHWvI5u3J8DezEOWcF4O-4" target="JHWvI5u3J8DezEOWcF4O-19">
          <mxGeometry width="50" height="50" relative="1" as="geometry">
            <mxPoint x="180" y="320" as="sourcePoint" />
            <mxPoint x="440" y="320" as="targetPoint" />
          </mxGeometry>
        </mxCell>
        <mxCell id="JHWvI5u3J8DezEOWcF4O-40" value="" style="endArrow=classic;html=1;rounded=0;entryX=0.667;entryY=-0.033;entryDx=0;entryDy=0;entryPerimeter=0;exitX=0.5;exitY=1;exitDx=0;exitDy=0;" edge="1" parent="1" source="JHWvI5u3J8DezEOWcF4O-4" target="JHWvI5u3J8DezEOWcF4O-25">
          <mxGeometry width="50" height="50" relative="1" as="geometry">
            <mxPoint x="400" y="290" as="sourcePoint" />
            <mxPoint x="399" y="347" as="targetPoint" />
          </mxGeometry>
        </mxCell>
        <mxCell id="JHWvI5u3J8DezEOWcF4O-44" style="edgeStyle=orthogonalEdgeStyle;rounded=0;orthogonalLoop=1;jettySize=auto;html=1;exitX=1;exitY=0.5;exitDx=0;exitDy=0;exitPerimeter=0;entryX=0.5;entryY=1;entryDx=0;entryDy=0;" edge="1" parent="1" source="JHWvI5u3J8DezEOWcF4O-22" target="YGt6WVVv_OeVz8It4PFo-1">
          <mxGeometry relative="1" as="geometry">
            <mxPoint x="570" y="220" as="targetPoint" />
          </mxGeometry>
        </mxCell>
        <mxCell id="-Eece2lGNnjCWGQgqXRw-1" value="" style="group" vertex="1" connectable="0" parent="1">
          <mxGeometry x="110" y="350" width="140" height="140" as="geometry" />
        </mxCell>
        <mxCell id="JHWvI5u3J8DezEOWcF4O-1" value="MongoDB" style="shape=cylinder3;whiteSpace=wrap;html=1;boundedLbl=1;backgroundOutline=1;size=15;" vertex="1" parent="-Eece2lGNnjCWGQgqXRw-1">
          <mxGeometry width="140" height="140" as="geometry" />
        </mxCell>
        <mxCell id="JHWvI5u3J8DezEOWcF4O-19" value="Shard 1" style="text;html=1;align=center;verticalAlign=middle;whiteSpace=wrap;rounded=0;" vertex="1" parent="-Eece2lGNnjCWGQgqXRw-1">
          <mxGeometry x="40" width="60" height="30" as="geometry" />
        </mxCell>
        <mxCell id="YGt6WVVv_OeVz8It4PFo-1" value="configSrv" style="rounded=1;whiteSpace=wrap;html=1;" vertex="1" parent="1">
          <mxGeometry x="510" y="235" width="120" height="60" as="geometry" />
        </mxCell>
      </root>
    </mxGraphModel>
  </diagram>
  <diagram name="Второй вариант" id="SpGJXzi0J-bZgDzpjpRz">
    <mxGraphModel dx="1026" dy="659" grid="1" gridSize="10" guides="1" tooltips="1" connect="1" arrows="1" fold="1" page="1" pageScale="1" pageWidth="827" pageHeight="1169" math="0" shadow="0">
      <root>
        <mxCell id="VqWnp5u9yktZRvNB8ii8-0" />
        <mxCell id="VqWnp5u9yktZRvNB8ii8-1" parent="VqWnp5u9yktZRvNB8ii8-0" />
        <mxCell id="VqWnp5u9yktZRvNB8ii8-2" value="pymongo-api" style="rounded=1;whiteSpace=wrap;html=1;" vertex="1" parent="VqWnp5u9yktZRvNB8ii8-1">
          <mxGeometry x="230" y="40" width="120" height="60" as="geometry" />
        </mxCell>
        <mxCell id="VqWnp5u9yktZRvNB8ii8-5" value="" style="group" vertex="1" connectable="0" parent="VqWnp5u9yktZRvNB8ii8-1">
          <mxGeometry x="320" y="350" width="140" height="140" as="geometry" />
        </mxCell>
        <mxCell id="VqWnp5u9yktZRvNB8ii8-6" value="" style="shape=cylinder3;whiteSpace=wrap;html=1;boundedLbl=1;backgroundOutline=1;size=15;" vertex="1" parent="VqWnp5u9yktZRvNB8ii8-5">
          <mxGeometry width="140" height="140" as="geometry" />
        </mxCell>
        <mxCell id="VqWnp5u9yktZRvNB8ii8-7" value="Shard&amp;nbsp;2" style="text;html=1;align=center;verticalAlign=middle;whiteSpace=wrap;rounded=0;" vertex="1" parent="VqWnp5u9yktZRvNB8ii8-5">
          <mxGeometry x="40" width="60" height="30" as="geometry" />
        </mxCell>
        <mxCell id="FKh7nHHpxdYz7oHavNCh-1" value="MongoDB" style="text;html=1;align=center;verticalAlign=middle;whiteSpace=wrap;rounded=0;" vertex="1" parent="VqWnp5u9yktZRvNB8ii8-5">
          <mxGeometry x="40" y="110" width="60" height="30" as="geometry" />
        </mxCell>
        <mxCell id="FKh7nHHpxdYz7oHavNCh-7" value="Primary" style="rounded=1;whiteSpace=wrap;html=1;" vertex="1" parent="VqWnp5u9yktZRvNB8ii8-5">
          <mxGeometry x="13.75" y="38" width="112.5" height="20" as="geometry" />
        </mxCell>
        <mxCell id="FKh7nHHpxdYz7oHavNCh-8" value="Replica" style="rounded=1;whiteSpace=wrap;html=1;" vertex="1" parent="VqWnp5u9yktZRvNB8ii8-5">
          <mxGeometry x="13.75" y="67" width="112.5" height="20" as="geometry" />
        </mxCell>
        <mxCell id="FKh7nHHpxdYz7oHavNCh-9" value="Replica" style="rounded=1;whiteSpace=wrap;html=1;" vertex="1" parent="VqWnp5u9yktZRvNB8ii8-5">
          <mxGeometry x="13.75" y="96" width="112.5" height="20" as="geometry" />
        </mxCell>
        <mxCell id="VqWnp5u9yktZRvNB8ii8-10" value="configSrv" style="rounded=1;whiteSpace=wrap;html=1;" vertex="1" parent="VqWnp5u9yktZRvNB8ii8-1">
          <mxGeometry x="500" y="245" width="120" height="60" as="geometry" />
        </mxCell>
        <mxCell id="VqWnp5u9yktZRvNB8ii8-11" value="Driver" style="rounded=1;whiteSpace=wrap;html=1;" vertex="1" parent="VqWnp5u9yktZRvNB8ii8-1">
          <mxGeometry x="235" y="150" width="110" height="50" as="geometry" />
        </mxCell>
        <mxCell id="VqWnp5u9yktZRvNB8ii8-14" value="" style="endArrow=classic;html=1;rounded=0;exitX=0.5;exitY=1;exitDx=0;exitDy=0;entryX=0.5;entryY=0;entryDx=0;entryDy=0;" edge="1" parent="VqWnp5u9yktZRvNB8ii8-1" source="VqWnp5u9yktZRvNB8ii8-11" target="Tx6DYvhSd6ErGrrIJ-vg-0">
          <mxGeometry width="50" height="50" relative="1" as="geometry">
            <mxPoint x="390" y="370" as="sourcePoint" />
            <mxPoint x="180" y="240" as="targetPoint" />
          </mxGeometry>
        </mxCell>
        <mxCell id="VqWnp5u9yktZRvNB8ii8-16" value="" style="endArrow=classic;html=1;rounded=0;exitX=0.5;exitY=1;exitDx=0;exitDy=0;" edge="1" parent="VqWnp5u9yktZRvNB8ii8-1" source="VqWnp5u9yktZRvNB8ii8-2" target="VqWnp5u9yktZRvNB8ii8-11">
          <mxGeometry width="50" height="50" relative="1" as="geometry">
            <mxPoint x="290" y="120" as="sourcePoint" />
            <mxPoint x="440" y="320" as="targetPoint" />
          </mxGeometry>
        </mxCell>
        <mxCell id="VqWnp5u9yktZRvNB8ii8-18" value="" style="endArrow=classic;html=1;rounded=0;entryX=0.5;entryY=0;entryDx=0;entryDy=0;exitX=0.5;exitY=1;exitDx=0;exitDy=0;" edge="1" parent="VqWnp5u9yktZRvNB8ii8-1" source="Tx6DYvhSd6ErGrrIJ-vg-0" target="VqWnp5u9yktZRvNB8ii8-22">
          <mxGeometry width="50" height="50" relative="1" as="geometry">
            <mxPoint x="180" y="290" as="sourcePoint" />
            <mxPoint x="440" y="320" as="targetPoint" />
          </mxGeometry>
        </mxCell>
        <mxCell id="VqWnp5u9yktZRvNB8ii8-19" value="" style="endArrow=classic;html=1;rounded=0;entryX=0.667;entryY=-0.033;entryDx=0;entryDy=0;entryPerimeter=0;exitX=0.564;exitY=1.04;exitDx=0;exitDy=0;exitPerimeter=0;" edge="1" parent="VqWnp5u9yktZRvNB8ii8-1" source="Tx6DYvhSd6ErGrrIJ-vg-0" target="VqWnp5u9yktZRvNB8ii8-7">
          <mxGeometry width="50" height="50" relative="1" as="geometry">
            <mxPoint x="400" y="290" as="sourcePoint" />
            <mxPoint x="399" y="347" as="targetPoint" />
          </mxGeometry>
        </mxCell>
        <mxCell id="VqWnp5u9yktZRvNB8ii8-20" style="edgeStyle=orthogonalEdgeStyle;rounded=0;orthogonalLoop=1;jettySize=auto;html=1;exitX=1;exitY=0.5;exitDx=0;exitDy=0;exitPerimeter=0;entryX=0.5;entryY=1;entryDx=0;entryDy=0;" edge="1" parent="VqWnp5u9yktZRvNB8ii8-1" source="VqWnp5u9yktZRvNB8ii8-6" target="VqWnp5u9yktZRvNB8ii8-10">
          <mxGeometry relative="1" as="geometry" />
        </mxCell>
        <mxCell id="FKh7nHHpxdYz7oHavNCh-6" value="" style="group" vertex="1" connectable="0" parent="VqWnp5u9yktZRvNB8ii8-1">
          <mxGeometry x="110" y="350" width="140" height="140" as="geometry" />
        </mxCell>
        <mxCell id="VqWnp5u9yktZRvNB8ii8-21" value="" style="shape=cylinder3;whiteSpace=wrap;html=1;boundedLbl=1;backgroundOutline=1;size=15;" vertex="1" parent="FKh7nHHpxdYz7oHavNCh-6">
          <mxGeometry width="140" height="140" as="geometry" />
        </mxCell>
        <mxCell id="VqWnp5u9yktZRvNB8ii8-22" value="Shard 1" style="text;html=1;align=center;verticalAlign=middle;whiteSpace=wrap;rounded=0;" vertex="1" parent="FKh7nHHpxdYz7oHavNCh-6">
          <mxGeometry x="40" width="60" height="30" as="geometry" />
        </mxCell>
        <mxCell id="FKh7nHHpxdYz7oHavNCh-0" value="MongoDB" style="text;html=1;align=center;verticalAlign=middle;whiteSpace=wrap;rounded=0;" vertex="1" parent="FKh7nHHpxdYz7oHavNCh-6">
          <mxGeometry x="40" y="110" width="60" height="30" as="geometry" />
        </mxCell>
        <mxCell id="FKh7nHHpxdYz7oHavNCh-3" value="Primary" style="rounded=1;whiteSpace=wrap;html=1;" vertex="1" parent="FKh7nHHpxdYz7oHavNCh-6">
          <mxGeometry x="13.75" y="38" width="112.5" height="20" as="geometry" />
        </mxCell>
        <mxCell id="FKh7nHHpxdYz7oHavNCh-4" value="Replica" style="rounded=1;whiteSpace=wrap;html=1;" vertex="1" parent="FKh7nHHpxdYz7oHavNCh-6">
          <mxGeometry x="13.75" y="67" width="112.5" height="20" as="geometry" />
        </mxCell>
        <mxCell id="FKh7nHHpxdYz7oHavNCh-5" value="Replica" style="rounded=1;whiteSpace=wrap;html=1;" vertex="1" parent="FKh7nHHpxdYz7oHavNCh-6">
          <mxGeometry x="13.75" y="96" width="112.5" height="20" as="geometry" />
        </mxCell>
        <mxCell id="1ZUKHW00HpIpibrVtLtO-0" style="edgeStyle=orthogonalEdgeStyle;rounded=0;orthogonalLoop=1;jettySize=auto;html=1;exitX=1;exitY=0.5;exitDx=0;exitDy=0;entryX=0;entryY=0.5;entryDx=0;entryDy=0;" edge="1" parent="VqWnp5u9yktZRvNB8ii8-1" source="Tx6DYvhSd6ErGrrIJ-vg-0" target="VqWnp5u9yktZRvNB8ii8-10">
          <mxGeometry relative="1" as="geometry" />
        </mxCell>
        <mxCell id="Tx6DYvhSd6ErGrrIJ-vg-0" value="Router" style="rounded=1;whiteSpace=wrap;html=1;" vertex="1" parent="VqWnp5u9yktZRvNB8ii8-1">
          <mxGeometry x="235" y="250" width="110" height="50" as="geometry" />
        </mxCell>
      </root>
    </mxGraphModel>
  </diagram>
  <diagram name="Третий вариант" id="4YcDi16O9JI4VZnZbJdg">
    <mxGraphModel dx="1026" dy="659" grid="1" gridSize="10" guides="1" tooltips="1" connect="1" arrows="1" fold="1" page="1" pageScale="1" pageWidth="827" pageHeight="1169" math="0" shadow="0">
      <root>
        <mxCell id="ibmPQJ5jRZBLwMhUd2cZ-0" />
        <mxCell id="ibmPQJ5jRZBLwMhUd2cZ-1" parent="ibmPQJ5jRZBLwMhUd2cZ-0" />
        <mxCell id="ibmPQJ5jRZBLwMhUd2cZ-2" value="pymongo-api" style="rounded=1;whiteSpace=wrap;html=1;" vertex="1" parent="ibmPQJ5jRZBLwMhUd2cZ-1">
          <mxGeometry x="230" y="40" width="120" height="60" as="geometry" />
        </mxCell>
        <mxCell id="ibmPQJ5jRZBLwMhUd2cZ-5" value="" style="group" vertex="1" connectable="0" parent="ibmPQJ5jRZBLwMhUd2cZ-1">
          <mxGeometry x="320" y="350" width="140" height="140" as="geometry" />
        </mxCell>
        <mxCell id="ibmPQJ5jRZBLwMhUd2cZ-6" value="" style="shape=cylinder3;whiteSpace=wrap;html=1;boundedLbl=1;backgroundOutline=1;size=15;" vertex="1" parent="ibmPQJ5jRZBLwMhUd2cZ-5">
          <mxGeometry width="140" height="140" as="geometry" />
        </mxCell>
        <mxCell id="ibmPQJ5jRZBLwMhUd2cZ-7" value="Shard&amp;nbsp;2" style="text;html=1;align=center;verticalAlign=middle;whiteSpace=wrap;rounded=0;" vertex="1" parent="ibmPQJ5jRZBLwMhUd2cZ-5">
          <mxGeometry x="40" width="60" height="30" as="geometry" />
        </mxCell>
        <mxCell id="ibmPQJ5jRZBLwMhUd2cZ-8" value="MongoDB" style="text;html=1;align=center;verticalAlign=middle;whiteSpace=wrap;rounded=0;" vertex="1" parent="ibmPQJ5jRZBLwMhUd2cZ-5">
          <mxGeometry x="40" y="110" width="60" height="30" as="geometry" />
        </mxCell>
        <mxCell id="ibmPQJ5jRZBLwMhUd2cZ-9" value="Primary" style="rounded=1;whiteSpace=wrap;html=1;" vertex="1" parent="ibmPQJ5jRZBLwMhUd2cZ-5">
          <mxGeometry x="13.75" y="38" width="112.5" height="20" as="geometry" />
        </mxCell>
        <mxCell id="ibmPQJ5jRZBLwMhUd2cZ-10" value="Replica" style="rounded=1;whiteSpace=wrap;html=1;" vertex="1" parent="ibmPQJ5jRZBLwMhUd2cZ-5">
          <mxGeometry x="13.75" y="67" width="112.5" height="20" as="geometry" />
        </mxCell>
        <mxCell id="ibmPQJ5jRZBLwMhUd2cZ-11" value="Replica" style="rounded=1;whiteSpace=wrap;html=1;" vertex="1" parent="ibmPQJ5jRZBLwMhUd2cZ-5">
          <mxGeometry x="13.75" y="96" width="112.5" height="20" as="geometry" />
        </mxCell>
        <mxCell id="ibmPQJ5jRZBLwMhUd2cZ-14" value="configSrv" style="rounded=1;whiteSpace=wrap;html=1;" vertex="1" parent="ibmPQJ5jRZBLwMhUd2cZ-1">
          <mxGeometry x="510" y="245" width="120" height="60" as="geometry" />
        </mxCell>
        <mxCell id="xKEZt32l1XcSQ7QMNj7M-1" style="edgeStyle=orthogonalEdgeStyle;rounded=0;orthogonalLoop=1;jettySize=auto;html=1;exitX=0.5;exitY=1;exitDx=0;exitDy=0;" edge="1" parent="ibmPQJ5jRZBLwMhUd2cZ-1" source="ibmPQJ5jRZBLwMhUd2cZ-15" target="xKEZt32l1XcSQ7QMNj7M-0">
          <mxGeometry relative="1" as="geometry" />
        </mxCell>
        <mxCell id="ibmPQJ5jRZBLwMhUd2cZ-15" value="Driver" style="rounded=1;whiteSpace=wrap;html=1;" vertex="1" parent="ibmPQJ5jRZBLwMhUd2cZ-1">
          <mxGeometry x="235" y="150" width="110" height="50" as="geometry" />
        </mxCell>
        <mxCell id="ibmPQJ5jRZBLwMhUd2cZ-20" value="" style="endArrow=classic;html=1;rounded=0;exitX=0.5;exitY=1;exitDx=0;exitDy=0;" edge="1" parent="ibmPQJ5jRZBLwMhUd2cZ-1" source="ibmPQJ5jRZBLwMhUd2cZ-2" target="ibmPQJ5jRZBLwMhUd2cZ-15">
          <mxGeometry width="50" height="50" relative="1" as="geometry">
            <mxPoint x="290" y="120" as="sourcePoint" />
            <mxPoint x="440" y="320" as="targetPoint" />
          </mxGeometry>
        </mxCell>
        <mxCell id="ibmPQJ5jRZBLwMhUd2cZ-22" value="" style="endArrow=classic;html=1;rounded=0;entryX=0.5;entryY=0;entryDx=0;entryDy=0;exitX=0.445;exitY=1.04;exitDx=0;exitDy=0;exitPerimeter=0;" edge="1" parent="ibmPQJ5jRZBLwMhUd2cZ-1" source="xKEZt32l1XcSQ7QMNj7M-0" target="ibmPQJ5jRZBLwMhUd2cZ-27">
          <mxGeometry width="50" height="50" relative="1" as="geometry">
            <mxPoint x="180" y="290" as="sourcePoint" />
            <mxPoint x="440" y="320" as="targetPoint" />
          </mxGeometry>
        </mxCell>
        <mxCell id="ibmPQJ5jRZBLwMhUd2cZ-23" value="" style="endArrow=classic;html=1;rounded=0;entryX=0.667;entryY=-0.033;entryDx=0;entryDy=0;entryPerimeter=0;exitX=0.5;exitY=1;exitDx=0;exitDy=0;" edge="1" parent="ibmPQJ5jRZBLwMhUd2cZ-1" source="xKEZt32l1XcSQ7QMNj7M-0" target="ibmPQJ5jRZBLwMhUd2cZ-7">
          <mxGeometry width="50" height="50" relative="1" as="geometry">
            <mxPoint x="400" y="290" as="sourcePoint" />
            <mxPoint x="399" y="347" as="targetPoint" />
          </mxGeometry>
        </mxCell>
        <mxCell id="ibmPQJ5jRZBLwMhUd2cZ-24" style="edgeStyle=orthogonalEdgeStyle;rounded=0;orthogonalLoop=1;jettySize=auto;html=1;exitX=1;exitY=0.5;exitDx=0;exitDy=0;exitPerimeter=0;entryX=0.5;entryY=1;entryDx=0;entryDy=0;" edge="1" parent="ibmPQJ5jRZBLwMhUd2cZ-1" source="ibmPQJ5jRZBLwMhUd2cZ-6" target="ibmPQJ5jRZBLwMhUd2cZ-14">
          <mxGeometry relative="1" as="geometry" />
        </mxCell>
        <mxCell id="ibmPQJ5jRZBLwMhUd2cZ-25" value="" style="group" vertex="1" connectable="0" parent="ibmPQJ5jRZBLwMhUd2cZ-1">
          <mxGeometry x="110" y="350" width="140" height="140" as="geometry" />
        </mxCell>
        <mxCell id="ibmPQJ5jRZBLwMhUd2cZ-26" value="" style="shape=cylinder3;whiteSpace=wrap;html=1;boundedLbl=1;backgroundOutline=1;size=15;" vertex="1" parent="ibmPQJ5jRZBLwMhUd2cZ-25">
          <mxGeometry width="140" height="140" as="geometry" />
        </mxCell>
        <mxCell id="ibmPQJ5jRZBLwMhUd2cZ-27" value="Shard 1" style="text;html=1;align=center;verticalAlign=middle;whiteSpace=wrap;rounded=0;" vertex="1" parent="ibmPQJ5jRZBLwMhUd2cZ-25">
          <mxGeometry x="40" width="60" height="30" as="geometry" />
        </mxCell>
        <mxCell id="ibmPQJ5jRZBLwMhUd2cZ-28" value="MongoDB" style="text;html=1;align=center;verticalAlign=middle;whiteSpace=wrap;rounded=0;" vertex="1" parent="ibmPQJ5jRZBLwMhUd2cZ-25">
          <mxGeometry x="40" y="110" width="60" height="30" as="geometry" />
        </mxCell>
        <mxCell id="ibmPQJ5jRZBLwMhUd2cZ-29" value="Primary" style="rounded=1;whiteSpace=wrap;html=1;" vertex="1" parent="ibmPQJ5jRZBLwMhUd2cZ-25">
          <mxGeometry x="13.75" y="38" width="112.5" height="20" as="geometry" />
        </mxCell>
        <mxCell id="ibmPQJ5jRZBLwMhUd2cZ-30" value="Replica" style="rounded=1;whiteSpace=wrap;html=1;" vertex="1" parent="ibmPQJ5jRZBLwMhUd2cZ-25">
          <mxGeometry x="13.75" y="67" width="112.5" height="20" as="geometry" />
        </mxCell>
        <mxCell id="ibmPQJ5jRZBLwMhUd2cZ-31" value="Replica" style="rounded=1;whiteSpace=wrap;html=1;" vertex="1" parent="ibmPQJ5jRZBLwMhUd2cZ-25">
          <mxGeometry x="13.75" y="96" width="112.5" height="20" as="geometry" />
        </mxCell>
        <mxCell id="aVi4ciJ5jOPVoZRx4kQq-0" value="Redis" style="rounded=1;whiteSpace=wrap;html=1;" vertex="1" parent="ibmPQJ5jRZBLwMhUd2cZ-1">
          <mxGeometry x="40" y="145" width="120" height="60" as="geometry" />
        </mxCell>
        <mxCell id="aVi4ciJ5jOPVoZRx4kQq-1" value="" style="endArrow=classic;html=1;rounded=0;exitX=0;exitY=0.5;exitDx=0;exitDy=0;entryX=0.5;entryY=0;entryDx=0;entryDy=0;" edge="1" parent="ibmPQJ5jRZBLwMhUd2cZ-1" source="ibmPQJ5jRZBLwMhUd2cZ-2" target="aVi4ciJ5jOPVoZRx4kQq-0">
          <mxGeometry width="50" height="50" relative="1" as="geometry">
            <mxPoint x="250" y="300" as="sourcePoint" />
            <mxPoint x="300" y="250" as="targetPoint" />
            <Array as="points">
              <mxPoint x="100" y="70" />
            </Array>
          </mxGeometry>
        </mxCell>
        <mxCell id="xKEZt32l1XcSQ7QMNj7M-2" style="edgeStyle=orthogonalEdgeStyle;rounded=0;orthogonalLoop=1;jettySize=auto;html=1;exitX=1;exitY=0.5;exitDx=0;exitDy=0;entryX=0;entryY=0.5;entryDx=0;entryDy=0;" edge="1" parent="ibmPQJ5jRZBLwMhUd2cZ-1" source="xKEZt32l1XcSQ7QMNj7M-0" target="ibmPQJ5jRZBLwMhUd2cZ-14">
          <mxGeometry relative="1" as="geometry" />
        </mxCell>
        <mxCell id="xKEZt32l1XcSQ7QMNj7M-0" value="Router" style="rounded=1;whiteSpace=wrap;html=1;" vertex="1" parent="ibmPQJ5jRZBLwMhUd2cZ-1">
          <mxGeometry x="235" y="250" width="110" height="50" as="geometry" />
        </mxCell>
      </root>
    </mxGraphModel>
  </diagram>
  <diagram name="Четвертый вариант" id="o92kTvx0ZBg1x_2FQ2Q0">
    <mxGraphModel dx="977" dy="1797" grid="1" gridSize="10" guides="1" tooltips="1" connect="1" arrows="1" fold="1" page="1" pageScale="1" pageWidth="827" pageHeight="1169" math="0" shadow="0">
      <root>
        <mxCell id="w37-bHEKxILuRBBO9z5A-0" />
        <mxCell id="w37-bHEKxILuRBBO9z5A-1" parent="w37-bHEKxILuRBBO9z5A-0" />
        <mxCell id="w37-bHEKxILuRBBO9z5A-2" value="pymongo-api" style="rounded=1;whiteSpace=wrap;html=1;" vertex="1" parent="w37-bHEKxILuRBBO9z5A-1">
          <mxGeometry x="230" y="40" width="120" height="60" as="geometry" />
        </mxCell>
        <mxCell id="w37-bHEKxILuRBBO9z5A-3" value="" style="group" vertex="1" connectable="0" parent="w37-bHEKxILuRBBO9z5A-1">
          <mxGeometry x="320" y="350" width="140" height="140" as="geometry" />
        </mxCell>
        <mxCell id="w37-bHEKxILuRBBO9z5A-4" value="" style="shape=cylinder3;whiteSpace=wrap;html=1;boundedLbl=1;backgroundOutline=1;size=15;" vertex="1" parent="w37-bHEKxILuRBBO9z5A-3">
          <mxGeometry width="140" height="140" as="geometry" />
        </mxCell>
        <mxCell id="w37-bHEKxILuRBBO9z5A-5" value="Shard&amp;nbsp;2" style="text;html=1;align=center;verticalAlign=middle;whiteSpace=wrap;rounded=0;" vertex="1" parent="w37-bHEKxILuRBBO9z5A-3">
          <mxGeometry x="40" width="60" height="30" as="geometry" />
        </mxCell>
        <mxCell id="w37-bHEKxILuRBBO9z5A-6" value="MongoDB" style="text;html=1;align=center;verticalAlign=middle;whiteSpace=wrap;rounded=0;" vertex="1" parent="w37-bHEKxILuRBBO9z5A-3">
          <mxGeometry x="40" y="110" width="60" height="30" as="geometry" />
        </mxCell>
        <mxCell id="w37-bHEKxILuRBBO9z5A-7" value="Primary" style="rounded=1;whiteSpace=wrap;html=1;" vertex="1" parent="w37-bHEKxILuRBBO9z5A-3">
          <mxGeometry x="13.75" y="38" width="112.5" height="20" as="geometry" />
        </mxCell>
        <mxCell id="w37-bHEKxILuRBBO9z5A-8" value="Replica" style="rounded=1;whiteSpace=wrap;html=1;" vertex="1" parent="w37-bHEKxILuRBBO9z5A-3">
          <mxGeometry x="13.75" y="67" width="112.5" height="20" as="geometry" />
        </mxCell>
        <mxCell id="w37-bHEKxILuRBBO9z5A-9" value="Replica" style="rounded=1;whiteSpace=wrap;html=1;" vertex="1" parent="w37-bHEKxILuRBBO9z5A-3">
          <mxGeometry x="13.75" y="96" width="112.5" height="20" as="geometry" />
        </mxCell>
        <mxCell id="w37-bHEKxILuRBBO9z5A-10" value="configSrv" style="rounded=1;whiteSpace=wrap;html=1;" vertex="1" parent="w37-bHEKxILuRBBO9z5A-1">
          <mxGeometry x="510" y="245" width="120" height="60" as="geometry" />
        </mxCell>
        <mxCell id="w37-bHEKxILuRBBO9z5A-11" style="edgeStyle=orthogonalEdgeStyle;rounded=0;orthogonalLoop=1;jettySize=auto;html=1;exitX=0.5;exitY=1;exitDx=0;exitDy=0;" edge="1" parent="w37-bHEKxILuRBBO9z5A-1" source="w37-bHEKxILuRBBO9z5A-12" target="w37-bHEKxILuRBBO9z5A-27">
          <mxGeometry relative="1" as="geometry" />
        </mxCell>
        <mxCell id="w37-bHEKxILuRBBO9z5A-12" value="Driver" style="rounded=1;whiteSpace=wrap;html=1;" vertex="1" parent="w37-bHEKxILuRBBO9z5A-1">
          <mxGeometry x="235" y="150" width="110" height="50" as="geometry" />
        </mxCell>
        <mxCell id="w37-bHEKxILuRBBO9z5A-13" value="" style="endArrow=classic;html=1;rounded=0;exitX=0.5;exitY=1;exitDx=0;exitDy=0;" edge="1" parent="w37-bHEKxILuRBBO9z5A-1" source="w37-bHEKxILuRBBO9z5A-2" target="w37-bHEKxILuRBBO9z5A-12">
          <mxGeometry width="50" height="50" relative="1" as="geometry">
            <mxPoint x="290" y="120" as="sourcePoint" />
            <mxPoint x="440" y="320" as="targetPoint" />
          </mxGeometry>
        </mxCell>
        <mxCell id="w37-bHEKxILuRBBO9z5A-14" value="" style="endArrow=classic;html=1;rounded=0;entryX=0.5;entryY=0;entryDx=0;entryDy=0;exitX=0.445;exitY=1.04;exitDx=0;exitDy=0;exitPerimeter=0;" edge="1" parent="w37-bHEKxILuRBBO9z5A-1" source="w37-bHEKxILuRBBO9z5A-27" target="w37-bHEKxILuRBBO9z5A-19">
          <mxGeometry width="50" height="50" relative="1" as="geometry">
            <mxPoint x="180" y="290" as="sourcePoint" />
            <mxPoint x="440" y="320" as="targetPoint" />
          </mxGeometry>
        </mxCell>
        <mxCell id="w37-bHEKxILuRBBO9z5A-15" value="" style="endArrow=classic;html=1;rounded=0;entryX=0.667;entryY=-0.033;entryDx=0;entryDy=0;entryPerimeter=0;exitX=0.5;exitY=1;exitDx=0;exitDy=0;" edge="1" parent="w37-bHEKxILuRBBO9z5A-1" source="w37-bHEKxILuRBBO9z5A-27" target="w37-bHEKxILuRBBO9z5A-5">
          <mxGeometry width="50" height="50" relative="1" as="geometry">
            <mxPoint x="400" y="290" as="sourcePoint" />
            <mxPoint x="399" y="347" as="targetPoint" />
          </mxGeometry>
        </mxCell>
        <mxCell id="w37-bHEKxILuRBBO9z5A-16" style="edgeStyle=orthogonalEdgeStyle;rounded=0;orthogonalLoop=1;jettySize=auto;html=1;exitX=1;exitY=0.5;exitDx=0;exitDy=0;exitPerimeter=0;entryX=0.5;entryY=1;entryDx=0;entryDy=0;" edge="1" parent="w37-bHEKxILuRBBO9z5A-1" source="w37-bHEKxILuRBBO9z5A-4" target="w37-bHEKxILuRBBO9z5A-10">
          <mxGeometry relative="1" as="geometry" />
        </mxCell>
        <mxCell id="w37-bHEKxILuRBBO9z5A-17" value="" style="group" vertex="1" connectable="0" parent="w37-bHEKxILuRBBO9z5A-1">
          <mxGeometry x="110" y="350" width="140" height="140" as="geometry" />
        </mxCell>
        <mxCell id="w37-bHEKxILuRBBO9z5A-18" value="" style="shape=cylinder3;whiteSpace=wrap;html=1;boundedLbl=1;backgroundOutline=1;size=15;" vertex="1" parent="w37-bHEKxILuRBBO9z5A-17">
          <mxGeometry width="140" height="140" as="geometry" />
        </mxCell>
        <mxCell id="w37-bHEKxILuRBBO9z5A-19" value="Shard 1" style="text;html=1;align=center;verticalAlign=middle;whiteSpace=wrap;rounded=0;" vertex="1" parent="w37-bHEKxILuRBBO9z5A-17">
          <mxGeometry x="40" width="60" height="30" as="geometry" />
        </mxCell>
        <mxCell id="w37-bHEKxILuRBBO9z5A-20" value="MongoDB" style="text;html=1;align=center;verticalAlign=middle;whiteSpace=wrap;rounded=0;" vertex="1" parent="w37-bHEKxILuRBBO9z5A-17">
          <mxGeometry x="40" y="110" width="60" height="30" as="geometry" />
        </mxCell>
        <mxCell id="w37-bHEKxILuRBBO9z5A-21" value="Primary" style="rounded=1;whiteSpace=wrap;html=1;" vertex="1" parent="w37-bHEKxILuRBBO9z5A-17">
          <mxGeometry x="13.75" y="38" width="112.5" height="20" as="geometry" />
        </mxCell>
        <mxCell id="w37-bHEKxILuRBBO9z5A-22" value="Replica" style="rounded=1;whiteSpace=wrap;html=1;" vertex="1" parent="w37-bHEKxILuRBBO9z5A-17">
          <mxGeometry x="13.75" y="67" width="112.5" height="20" as="geometry" />
        </mxCell>
        <mxCell id="w37-bHEKxILuRBBO9z5A-23" value="Replica" style="rounded=1;whiteSpace=wrap;html=1;" vertex="1" parent="w37-bHEKxILuRBBO9z5A-17">
          <mxGeometry x="13.75" y="96" width="112.5" height="20" as="geometry" />
        </mxCell>
        <mxCell id="w37-bHEKxILuRBBO9z5A-24" value="Redis" style="rounded=1;whiteSpace=wrap;html=1;" vertex="1" parent="w37-bHEKxILuRBBO9z5A-1">
          <mxGeometry x="40" y="145" width="120" height="60" as="geometry" />
        </mxCell>
        <mxCell id="w37-bHEKxILuRBBO9z5A-25" value="" style="endArrow=classic;html=1;rounded=0;exitX=0;exitY=0.5;exitDx=0;exitDy=0;entryX=0.5;entryY=0;entryDx=0;entryDy=0;" edge="1" parent="w37-bHEKxILuRBBO9z5A-1" source="w37-bHEKxILuRBBO9z5A-2" target="w37-bHEKxILuRBBO9z5A-24">
          <mxGeometry width="50" height="50" relative="1" as="geometry">
            <mxPoint x="250" y="300" as="sourcePoint" />
            <mxPoint x="300" y="250" as="targetPoint" />
            <Array as="points">
              <mxPoint x="100" y="70" />
            </Array>
          </mxGeometry>
        </mxCell>
        <mxCell id="w37-bHEKxILuRBBO9z5A-26" style="edgeStyle=orthogonalEdgeStyle;rounded=0;orthogonalLoop=1;jettySize=auto;html=1;exitX=1;exitY=0.5;exitDx=0;exitDy=0;entryX=0;entryY=0.5;entryDx=0;entryDy=0;" edge="1" parent="w37-bHEKxILuRBBO9z5A-1" source="w37-bHEKxILuRBBO9z5A-27" target="w37-bHEKxILuRBBO9z5A-10">
          <mxGeometry relative="1" as="geometry" />
        </mxCell>
        <mxCell id="w37-bHEKxILuRBBO9z5A-27" value="Router" style="rounded=1;whiteSpace=wrap;html=1;" vertex="1" parent="w37-bHEKxILuRBBO9z5A-1">
          <mxGeometry x="235" y="250" width="110" height="50" as="geometry" />
        </mxCell>
        <mxCell id="l13Tcwispl5V7E9VCtbQ-9" style="edgeStyle=orthogonalEdgeStyle;rounded=0;orthogonalLoop=1;jettySize=auto;html=1;exitX=1;exitY=0.5;exitDx=0;exitDy=0;entryX=0.5;entryY=1;entryDx=0;entryDy=0;" edge="1" parent="w37-bHEKxILuRBBO9z5A-1" source="l13Tcwispl5V7E9VCtbQ-0" target="l13Tcwispl5V7E9VCtbQ-3">
          <mxGeometry relative="1" as="geometry" />
        </mxCell>
        <mxCell id="l13Tcwispl5V7E9VCtbQ-0" value="pymongo-api" style="rounded=1;whiteSpace=wrap;html=1;" vertex="1" parent="w37-bHEKxILuRBBO9z5A-1">
          <mxGeometry x="380" y="40" width="120" height="60" as="geometry" />
        </mxCell>
        <mxCell id="l13Tcwispl5V7E9VCtbQ-1" value="APISIX Gateway" style="rounded=1;whiteSpace=wrap;html=1;" vertex="1" parent="w37-bHEKxILuRBBO9z5A-1">
          <mxGeometry x="300" y="-160" width="120" height="60" as="geometry" />
        </mxCell>
        <mxCell id="l13Tcwispl5V7E9VCtbQ-2" value="consul_kv" style="rounded=1;whiteSpace=wrap;html=1;" vertex="1" parent="w37-bHEKxILuRBBO9z5A-1">
          <mxGeometry x="410" y="-145" width="80" height="30" as="geometry" />
        </mxCell>
        <mxCell id="l13Tcwispl5V7E9VCtbQ-3" value="Consul" style="rounded=1;whiteSpace=wrap;html=1;" vertex="1" parent="w37-bHEKxILuRBBO9z5A-1">
          <mxGeometry x="570" y="-160" width="120" height="60" as="geometry" />
        </mxCell>
        <mxCell id="l13Tcwispl5V7E9VCtbQ-8" style="edgeStyle=orthogonalEdgeStyle;rounded=0;orthogonalLoop=1;jettySize=auto;html=1;exitX=0.68;exitY=1.018;exitDx=0;exitDy=0;entryX=0.75;entryY=1;entryDx=0;entryDy=0;exitPerimeter=0;" edge="1" parent="w37-bHEKxILuRBBO9z5A-1" source="w37-bHEKxILuRBBO9z5A-2" target="l13Tcwispl5V7E9VCtbQ-3">
          <mxGeometry relative="1" as="geometry">
            <mxPoint x="350" y="120.78" as="sourcePoint" />
            <mxPoint x="532.96" y="-19.99999999999997" as="targetPoint" />
            <Array as="points">
              <mxPoint x="312" y="120" />
              <mxPoint x="660" y="120" />
            </Array>
          </mxGeometry>
        </mxCell>
        <mxCell id="l13Tcwispl5V7E9VCtbQ-11" value="" style="endArrow=none;html=1;rounded=0;" edge="1" parent="w37-bHEKxILuRBBO9z5A-1">
          <mxGeometry width="50" height="50" relative="1" as="geometry">
            <mxPoint x="290" as="sourcePoint" />
            <mxPoint x="440" as="targetPoint" />
          </mxGeometry>
        </mxCell>
        <mxCell id="l13Tcwispl5V7E9VCtbQ-12" value="" style="endArrow=classic;html=1;rounded=0;entryX=0.5;entryY=0;entryDx=0;entryDy=0;" edge="1" parent="w37-bHEKxILuRBBO9z5A-1" target="w37-bHEKxILuRBBO9z5A-2">
          <mxGeometry width="50" height="50" relative="1" as="geometry">
            <mxPoint x="290" as="sourcePoint" />
            <mxPoint x="310" y="-130" as="targetPoint" />
          </mxGeometry>
        </mxCell>
        <mxCell id="l13Tcwispl5V7E9VCtbQ-13" value="" style="endArrow=classic;html=1;rounded=0;entryX=0.5;entryY=0;entryDx=0;entryDy=0;" edge="1" parent="w37-bHEKxILuRBBO9z5A-1" target="l13Tcwispl5V7E9VCtbQ-0">
          <mxGeometry width="50" height="50" relative="1" as="geometry">
            <mxPoint x="440" as="sourcePoint" />
            <mxPoint x="310" y="-130" as="targetPoint" />
          </mxGeometry>
        </mxCell>
        <mxCell id="l13Tcwispl5V7E9VCtbQ-14" value="" style="endArrow=none;html=1;rounded=0;entryX=0.5;entryY=1;entryDx=0;entryDy=0;" edge="1" parent="w37-bHEKxILuRBBO9z5A-1" target="l13Tcwispl5V7E9VCtbQ-1">
          <mxGeometry width="50" height="50" relative="1" as="geometry">
            <mxPoint x="360" as="sourcePoint" />
            <mxPoint x="310" y="-130" as="targetPoint" />
          </mxGeometry>
        </mxCell>
        <mxCell id="l13Tcwispl5V7E9VCtbQ-15" style="edgeStyle=orthogonalEdgeStyle;rounded=0;orthogonalLoop=1;jettySize=auto;html=1;exitX=1;exitY=0.5;exitDx=0;exitDy=0;entryX=0;entryY=0.5;entryDx=0;entryDy=0;" edge="1" parent="w37-bHEKxILuRBBO9z5A-1" source="l13Tcwispl5V7E9VCtbQ-2" target="l13Tcwispl5V7E9VCtbQ-3">
          <mxGeometry relative="1" as="geometry" />
        </mxCell>
        <mxCell id="0cWuJNbdDI9BSAs5nzhq-1" style="edgeStyle=orthogonalEdgeStyle;rounded=0;orthogonalLoop=1;jettySize=auto;html=1;exitX=0.5;exitY=1;exitDx=0;exitDy=0;entryX=0.5;entryY=0;entryDx=0;entryDy=0;" edge="1" parent="w37-bHEKxILuRBBO9z5A-1" source="0cWuJNbdDI9BSAs5nzhq-0" target="l13Tcwispl5V7E9VCtbQ-1">
          <mxGeometry relative="1" as="geometry" />
        </mxCell>
        <mxCell id="0cWuJNbdDI9BSAs5nzhq-0" value="Сайт" style="rounded=1;whiteSpace=wrap;html=1;" vertex="1" parent="w37-bHEKxILuRBBO9z5A-1">
          <mxGeometry x="300" y="-290" width="120" height="60" as="geometry" />
        </mxCell>
      </root>
    </mxGraphModel>
  </diagram>
  <diagram name="Пятый вариант" id="3w2-VEsFtoGJrGNYyr2S">
    <mxGraphModel dx="1026" dy="1828" grid="1" gridSize="10" guides="1" tooltips="1" connect="1" arrows="1" fold="1" page="1" pageScale="1" pageWidth="827" pageHeight="1169" math="0" shadow="0">
      <root>
        <mxCell id="eOJxOYCDW50Yw_6FhL6e-0" />
        <mxCell id="eOJxOYCDW50Yw_6FhL6e-1" parent="eOJxOYCDW50Yw_6FhL6e-0" />
        <mxCell id="eOJxOYCDW50Yw_6FhL6e-2" value="pymongo-api" style="rounded=1;whiteSpace=wrap;html=1;" vertex="1" parent="eOJxOYCDW50Yw_6FhL6e-1">
          <mxGeometry x="230" y="40" width="120" height="60" as="geometry" />
        </mxCell>
        <mxCell id="eOJxOYCDW50Yw_6FhL6e-3" value="" style="group" vertex="1" connectable="0" parent="eOJxOYCDW50Yw_6FhL6e-1">
          <mxGeometry x="320" y="350" width="140" height="140" as="geometry" />
        </mxCell>
        <mxCell id="eOJxOYCDW50Yw_6FhL6e-4" value="" style="shape=cylinder3;whiteSpace=wrap;html=1;boundedLbl=1;backgroundOutline=1;size=15;" vertex="1" parent="eOJxOYCDW50Yw_6FhL6e-3">
          <mxGeometry width="140" height="140" as="geometry" />
        </mxCell>
        <mxCell id="eOJxOYCDW50Yw_6FhL6e-5" value="Shard&amp;nbsp;2" style="text;html=1;align=center;verticalAlign=middle;whiteSpace=wrap;rounded=0;" vertex="1" parent="eOJxOYCDW50Yw_6FhL6e-3">
          <mxGeometry x="40" width="60" height="30" as="geometry" />
        </mxCell>
        <mxCell id="eOJxOYCDW50Yw_6FhL6e-6" value="MongoDB" style="text;html=1;align=center;verticalAlign=middle;whiteSpace=wrap;rounded=0;" vertex="1" parent="eOJxOYCDW50Yw_6FhL6e-3">
          <mxGeometry x="40" y="110" width="60" height="30" as="geometry" />
        </mxCell>
        <mxCell id="eOJxOYCDW50Yw_6FhL6e-7" value="Primary" style="rounded=1;whiteSpace=wrap;html=1;" vertex="1" parent="eOJxOYCDW50Yw_6FhL6e-3">
          <mxGeometry x="13.75" y="38" width="112.5" height="20" as="geometry" />
        </mxCell>
        <mxCell id="eOJxOYCDW50Yw_6FhL6e-8" value="Replica" style="rounded=1;whiteSpace=wrap;html=1;" vertex="1" parent="eOJxOYCDW50Yw_6FhL6e-3">
          <mxGeometry x="13.75" y="67" width="112.5" height="20" as="geometry" />
        </mxCell>
        <mxCell id="eOJxOYCDW50Yw_6FhL6e-9" value="Replica" style="rounded=1;whiteSpace=wrap;html=1;" vertex="1" parent="eOJxOYCDW50Yw_6FhL6e-3">
          <mxGeometry x="13.75" y="96" width="112.5" height="20" as="geometry" />
        </mxCell>
        <mxCell id="eOJxOYCDW50Yw_6FhL6e-10" value="configSrv" style="rounded=1;whiteSpace=wrap;html=1;" vertex="1" parent="eOJxOYCDW50Yw_6FhL6e-1">
          <mxGeometry x="510" y="245" width="120" height="60" as="geometry" />
        </mxCell>
        <mxCell id="eOJxOYCDW50Yw_6FhL6e-11" style="edgeStyle=orthogonalEdgeStyle;rounded=0;orthogonalLoop=1;jettySize=auto;html=1;exitX=0.5;exitY=1;exitDx=0;exitDy=0;" edge="1" parent="eOJxOYCDW50Yw_6FhL6e-1" source="eOJxOYCDW50Yw_6FhL6e-12" target="eOJxOYCDW50Yw_6FhL6e-27">
          <mxGeometry relative="1" as="geometry" />
        </mxCell>
        <mxCell id="eOJxOYCDW50Yw_6FhL6e-12" value="Driver" style="rounded=1;whiteSpace=wrap;html=1;" vertex="1" parent="eOJxOYCDW50Yw_6FhL6e-1">
          <mxGeometry x="235" y="150" width="110" height="50" as="geometry" />
        </mxCell>
        <mxCell id="eOJxOYCDW50Yw_6FhL6e-13" value="" style="endArrow=classic;html=1;rounded=0;exitX=0.5;exitY=1;exitDx=0;exitDy=0;" edge="1" parent="eOJxOYCDW50Yw_6FhL6e-1" source="eOJxOYCDW50Yw_6FhL6e-2" target="eOJxOYCDW50Yw_6FhL6e-12">
          <mxGeometry width="50" height="50" relative="1" as="geometry">
            <mxPoint x="290" y="120" as="sourcePoint" />
            <mxPoint x="440" y="320" as="targetPoint" />
          </mxGeometry>
        </mxCell>
        <mxCell id="eOJxOYCDW50Yw_6FhL6e-14" value="" style="endArrow=classic;html=1;rounded=0;entryX=0.5;entryY=0;entryDx=0;entryDy=0;exitX=0.445;exitY=1.04;exitDx=0;exitDy=0;exitPerimeter=0;" edge="1" parent="eOJxOYCDW50Yw_6FhL6e-1" source="eOJxOYCDW50Yw_6FhL6e-27" target="eOJxOYCDW50Yw_6FhL6e-19">
          <mxGeometry width="50" height="50" relative="1" as="geometry">
            <mxPoint x="180" y="290" as="sourcePoint" />
            <mxPoint x="440" y="320" as="targetPoint" />
          </mxGeometry>
        </mxCell>
        <mxCell id="eOJxOYCDW50Yw_6FhL6e-15" value="" style="endArrow=classic;html=1;rounded=0;entryX=0.667;entryY=-0.033;entryDx=0;entryDy=0;entryPerimeter=0;exitX=0.5;exitY=1;exitDx=0;exitDy=0;" edge="1" parent="eOJxOYCDW50Yw_6FhL6e-1" source="eOJxOYCDW50Yw_6FhL6e-27" target="eOJxOYCDW50Yw_6FhL6e-5">
          <mxGeometry width="50" height="50" relative="1" as="geometry">
            <mxPoint x="400" y="290" as="sourcePoint" />
            <mxPoint x="399" y="347" as="targetPoint" />
          </mxGeometry>
        </mxCell>
        <mxCell id="eOJxOYCDW50Yw_6FhL6e-16" style="edgeStyle=orthogonalEdgeStyle;rounded=0;orthogonalLoop=1;jettySize=auto;html=1;exitX=1;exitY=0.5;exitDx=0;exitDy=0;exitPerimeter=0;entryX=0.5;entryY=1;entryDx=0;entryDy=0;" edge="1" parent="eOJxOYCDW50Yw_6FhL6e-1" source="eOJxOYCDW50Yw_6FhL6e-4" target="eOJxOYCDW50Yw_6FhL6e-10">
          <mxGeometry relative="1" as="geometry" />
        </mxCell>
        <mxCell id="eOJxOYCDW50Yw_6FhL6e-17" value="" style="group" vertex="1" connectable="0" parent="eOJxOYCDW50Yw_6FhL6e-1">
          <mxGeometry x="110" y="350" width="140" height="140" as="geometry" />
        </mxCell>
        <mxCell id="eOJxOYCDW50Yw_6FhL6e-18" value="" style="shape=cylinder3;whiteSpace=wrap;html=1;boundedLbl=1;backgroundOutline=1;size=15;" vertex="1" parent="eOJxOYCDW50Yw_6FhL6e-17">
          <mxGeometry width="140" height="140" as="geometry" />
        </mxCell>
        <mxCell id="eOJxOYCDW50Yw_6FhL6e-19" value="Shard 1" style="text;html=1;align=center;verticalAlign=middle;whiteSpace=wrap;rounded=0;" vertex="1" parent="eOJxOYCDW50Yw_6FhL6e-17">
          <mxGeometry x="40" width="60" height="30" as="geometry" />
        </mxCell>
        <mxCell id="eOJxOYCDW50Yw_6FhL6e-20" value="MongoDB" style="text;html=1;align=center;verticalAlign=middle;whiteSpace=wrap;rounded=0;" vertex="1" parent="eOJxOYCDW50Yw_6FhL6e-17">
          <mxGeometry x="40" y="110" width="60" height="30" as="geometry" />
        </mxCell>
        <mxCell id="eOJxOYCDW50Yw_6FhL6e-21" value="Primary" style="rounded=1;whiteSpace=wrap;html=1;" vertex="1" parent="eOJxOYCDW50Yw_6FhL6e-17">
          <mxGeometry x="13.75" y="38" width="112.5" height="20" as="geometry" />
        </mxCell>
        <mxCell id="eOJxOYCDW50Yw_6FhL6e-22" value="Replica" style="rounded=1;whiteSpace=wrap;html=1;" vertex="1" parent="eOJxOYCDW50Yw_6FhL6e-17">
          <mxGeometry x="13.75" y="67" width="112.5" height="20" as="geometry" />
        </mxCell>
        <mxCell id="eOJxOYCDW50Yw_6FhL6e-23" value="Replica" style="rounded=1;whiteSpace=wrap;html=1;" vertex="1" parent="eOJxOYCDW50Yw_6FhL6e-17">
          <mxGeometry x="13.75" y="96" width="112.5" height="20" as="geometry" />
        </mxCell>
        <mxCell id="eOJxOYCDW50Yw_6FhL6e-24" value="Redis" style="rounded=1;whiteSpace=wrap;html=1;" vertex="1" parent="eOJxOYCDW50Yw_6FhL6e-1">
          <mxGeometry x="40" y="145" width="120" height="60" as="geometry" />
        </mxCell>
        <mxCell id="eOJxOYCDW50Yw_6FhL6e-25" value="" style="endArrow=classic;html=1;rounded=0;exitX=0;exitY=0.5;exitDx=0;exitDy=0;entryX=0.5;entryY=0;entryDx=0;entryDy=0;" edge="1" parent="eOJxOYCDW50Yw_6FhL6e-1" source="eOJxOYCDW50Yw_6FhL6e-2" target="eOJxOYCDW50Yw_6FhL6e-24">
          <mxGeometry width="50" height="50" relative="1" as="geometry">
            <mxPoint x="250" y="300" as="sourcePoint" />
            <mxPoint x="300" y="250" as="targetPoint" />
            <Array as="points">
              <mxPoint x="100" y="70" />
            </Array>
          </mxGeometry>
        </mxCell>
        <mxCell id="eOJxOYCDW50Yw_6FhL6e-26" style="edgeStyle=orthogonalEdgeStyle;rounded=0;orthogonalLoop=1;jettySize=auto;html=1;exitX=1;exitY=0.5;exitDx=0;exitDy=0;entryX=0;entryY=0.5;entryDx=0;entryDy=0;" edge="1" parent="eOJxOYCDW50Yw_6FhL6e-1" source="eOJxOYCDW50Yw_6FhL6e-27" target="eOJxOYCDW50Yw_6FhL6e-10">
          <mxGeometry relative="1" as="geometry" />
        </mxCell>
        <mxCell id="eOJxOYCDW50Yw_6FhL6e-27" value="Router" style="rounded=1;whiteSpace=wrap;html=1;" vertex="1" parent="eOJxOYCDW50Yw_6FhL6e-1">
          <mxGeometry x="235" y="250" width="110" height="50" as="geometry" />
        </mxCell>
        <mxCell id="eOJxOYCDW50Yw_6FhL6e-28" style="edgeStyle=orthogonalEdgeStyle;rounded=0;orthogonalLoop=1;jettySize=auto;html=1;exitX=1;exitY=0.5;exitDx=0;exitDy=0;entryX=0.5;entryY=1;entryDx=0;entryDy=0;" edge="1" parent="eOJxOYCDW50Yw_6FhL6e-1" source="eOJxOYCDW50Yw_6FhL6e-29" target="eOJxOYCDW50Yw_6FhL6e-32">
          <mxGeometry relative="1" as="geometry" />
        </mxCell>
        <mxCell id="eOJxOYCDW50Yw_6FhL6e-29" value="pymongo-api" style="rounded=1;whiteSpace=wrap;html=1;" vertex="1" parent="eOJxOYCDW50Yw_6FhL6e-1">
          <mxGeometry x="380" y="40" width="120" height="60" as="geometry" />
        </mxCell>
        <mxCell id="eOJxOYCDW50Yw_6FhL6e-30" value="APISIX Gateway" style="rounded=1;whiteSpace=wrap;html=1;" vertex="1" parent="eOJxOYCDW50Yw_6FhL6e-1">
          <mxGeometry x="300" y="-160" width="120" height="60" as="geometry" />
        </mxCell>
        <mxCell id="eOJxOYCDW50Yw_6FhL6e-31" value="consul_kv" style="rounded=1;whiteSpace=wrap;html=1;" vertex="1" parent="eOJxOYCDW50Yw_6FhL6e-1">
          <mxGeometry x="410" y="-145" width="80" height="30" as="geometry" />
        </mxCell>
        <mxCell id="eOJxOYCDW50Yw_6FhL6e-32" value="Consul" style="rounded=1;whiteSpace=wrap;html=1;" vertex="1" parent="eOJxOYCDW50Yw_6FhL6e-1">
          <mxGeometry x="570" y="-160" width="120" height="60" as="geometry" />
        </mxCell>
        <mxCell id="eOJxOYCDW50Yw_6FhL6e-33" style="edgeStyle=orthogonalEdgeStyle;rounded=0;orthogonalLoop=1;jettySize=auto;html=1;exitX=0.68;exitY=1.018;exitDx=0;exitDy=0;entryX=0.75;entryY=1;entryDx=0;entryDy=0;exitPerimeter=0;" edge="1" parent="eOJxOYCDW50Yw_6FhL6e-1" source="eOJxOYCDW50Yw_6FhL6e-2" target="eOJxOYCDW50Yw_6FhL6e-32">
          <mxGeometry relative="1" as="geometry">
            <mxPoint x="350" y="120.78" as="sourcePoint" />
            <mxPoint x="532.96" y="-19.99999999999997" as="targetPoint" />
            <Array as="points">
              <mxPoint x="312" y="120" />
              <mxPoint x="660" y="120" />
            </Array>
          </mxGeometry>
        </mxCell>
        <mxCell id="eOJxOYCDW50Yw_6FhL6e-34" value="" style="endArrow=none;html=1;rounded=0;" edge="1" parent="eOJxOYCDW50Yw_6FhL6e-1">
          <mxGeometry width="50" height="50" relative="1" as="geometry">
            <mxPoint x="290" as="sourcePoint" />
            <mxPoint x="440" as="targetPoint" />
          </mxGeometry>
        </mxCell>
        <mxCell id="eOJxOYCDW50Yw_6FhL6e-35" value="" style="endArrow=classic;html=1;rounded=0;entryX=0.5;entryY=0;entryDx=0;entryDy=0;" edge="1" parent="eOJxOYCDW50Yw_6FhL6e-1" target="eOJxOYCDW50Yw_6FhL6e-2">
          <mxGeometry width="50" height="50" relative="1" as="geometry">
            <mxPoint x="290" as="sourcePoint" />
            <mxPoint x="310" y="-130" as="targetPoint" />
          </mxGeometry>
        </mxCell>
        <mxCell id="eOJxOYCDW50Yw_6FhL6e-36" value="" style="endArrow=classic;html=1;rounded=0;entryX=0.5;entryY=0;entryDx=0;entryDy=0;" edge="1" parent="eOJxOYCDW50Yw_6FhL6e-1" target="eOJxOYCDW50Yw_6FhL6e-29">
          <mxGeometry width="50" height="50" relative="1" as="geometry">
            <mxPoint x="440" as="sourcePoint" />
            <mxPoint x="310" y="-130" as="targetPoint" />
          </mxGeometry>
        </mxCell>
        <mxCell id="eOJxOYCDW50Yw_6FhL6e-37" value="" style="endArrow=none;html=1;rounded=0;entryX=0.5;entryY=1;entryDx=0;entryDy=0;" edge="1" parent="eOJxOYCDW50Yw_6FhL6e-1" target="eOJxOYCDW50Yw_6FhL6e-30">
          <mxGeometry width="50" height="50" relative="1" as="geometry">
            <mxPoint x="360" as="sourcePoint" />
            <mxPoint x="310" y="-130" as="targetPoint" />
          </mxGeometry>
        </mxCell>
        <mxCell id="eOJxOYCDW50Yw_6FhL6e-38" style="edgeStyle=orthogonalEdgeStyle;rounded=0;orthogonalLoop=1;jettySize=auto;html=1;exitX=1;exitY=0.5;exitDx=0;exitDy=0;entryX=0;entryY=0.5;entryDx=0;entryDy=0;" edge="1" parent="eOJxOYCDW50Yw_6FhL6e-1" source="eOJxOYCDW50Yw_6FhL6e-31" target="eOJxOYCDW50Yw_6FhL6e-32">
          <mxGeometry relative="1" as="geometry" />
        </mxCell>
        <mxCell id="eOJxOYCDW50Yw_6FhL6e-39" style="edgeStyle=orthogonalEdgeStyle;rounded=0;orthogonalLoop=1;jettySize=auto;html=1;exitX=0.5;exitY=1;exitDx=0;exitDy=0;entryX=0.5;entryY=0;entryDx=0;entryDy=0;" edge="1" parent="eOJxOYCDW50Yw_6FhL6e-1" source="eOJxOYCDW50Yw_6FhL6e-40" target="eOJxOYCDW50Yw_6FhL6e-30">
          <mxGeometry relative="1" as="geometry" />
        </mxCell>
        <mxCell id="7GnFfQBwuaTVoY8L9Qum-2" style="edgeStyle=orthogonalEdgeStyle;rounded=0;orthogonalLoop=1;jettySize=auto;html=1;exitX=0;exitY=0.5;exitDx=0;exitDy=0;entryX=0.5;entryY=0.056;entryDx=0;entryDy=0;entryPerimeter=0;" edge="1" parent="eOJxOYCDW50Yw_6FhL6e-1" source="eOJxOYCDW50Yw_6FhL6e-40" target="7GnFfQBwuaTVoY8L9Qum-0">
          <mxGeometry relative="1" as="geometry">
            <mxPoint y="-260" as="targetPoint" />
          </mxGeometry>
        </mxCell>
        <mxCell id="eOJxOYCDW50Yw_6FhL6e-40" value="Сайт" style="rounded=1;whiteSpace=wrap;html=1;" vertex="1" parent="eOJxOYCDW50Yw_6FhL6e-1">
          <mxGeometry x="300" y="-290" width="120" height="60" as="geometry" />
        </mxCell>
        <mxCell id="7GnFfQBwuaTVoY8L9Qum-5" style="edgeStyle=orthogonalEdgeStyle;rounded=0;orthogonalLoop=1;jettySize=auto;html=1;exitX=0.875;exitY=0.5;exitDx=0;exitDy=0;exitPerimeter=0;entryX=0;entryY=0.5;entryDx=0;entryDy=0;" edge="1" parent="eOJxOYCDW50Yw_6FhL6e-1" source="7GnFfQBwuaTVoY8L9Qum-0" target="eOJxOYCDW50Yw_6FhL6e-30">
          <mxGeometry relative="1" as="geometry" />
        </mxCell>
        <mxCell id="7GnFfQBwuaTVoY8L9Qum-0" value="CDN" style="ellipse;shape=cloud;whiteSpace=wrap;html=1;" vertex="1" parent="eOJxOYCDW50Yw_6FhL6e-1">
          <mxGeometry x="20" y="-170" width="120" height="80" as="geometry" />
        </mxCell>
      </root>
    </mxGraphModel>
  </diagram>
</mxfile>
